<svg xmlns="http://www.w3.org/2000/svg" viewBox="0 0 512 512" fill="none" stroke="currentColor" stroke-width="2">
  <circle cx="256" cy="256" r="120" fill="url(#gradient)" />
  <path d="M256 128a128 128 0 0 1 128 128 128 128 0 0 1-128 128 128 128 0 0 1-128-128 128 128 0 0 1 128-128" fill="none" stroke="currentColor" />
  <path d="M256 96v64M256 352v64M352 256h64M96 256h64M343.6 168.4l45.3 45.3M123.1 336.9l45.3 45.3M343.6 343.6l-45.3 45.3M123.1 175.1l45.3-45.3" fill="none" stroke="currentColor" />
  <defs>
    <linearGradient id="gradient" x1="0%" y1="0%" x2="100%" y2="100%">
      <stop offset="0%" style="stop-color:#61DAFB;stop-opacity:1" />
      <stop offset="100%" style="stop-color:#9966FF;stop-opacity:1" />
    </linearGradient>
  </defs>
</svg>
